<?xml version="1.0" encoding="UTF-8" standalone="no"?>
<!DOCTYPE svg PUBLIC "-//W3C//DTD SVG 1.1//EN" "http://www.w3.org/Graphics/SVG/1.1/DTD/svg11.dtd">
<svg width="100%" height="100%" viewBox="0 0 409 306" version="1.1" xmlns="http://www.w3.org/2000/svg" xmlns:xlink="http://www.w3.org/1999/xlink" xml:space="preserve" xmlns:serif="http://www.serif.com/" style="fill-rule:evenodd;clip-rule:evenodd;stroke-linejoin:round;stroke-miterlimit:1.41421;">
    <g transform="matrix(1,0,0,1,-755.592,-416.638)">
        <g transform="matrix(0.772781,0,0,0.772781,715.96,-44.9477)">
            <g transform="matrix(1.70996,0.0363722,-0.0262053,1.23198,-2065.15,-508.296)">
                <g transform="matrix(0.56756,-0.0738277,0.0531912,0.787756,394.26,261.089)">
                    <path d="M1549.48,1296.24L1553.61,1296.24C1557.45,1296.24 1560.12,1295.38 1561.6,1293.67C1563.09,1291.95 1563.83,1288.88 1563.83,1284.45C1563.83,1280.14 1563.07,1277.08 1561.56,1275.28C1560.04,1273.47 1557.45,1272.57 1553.81,1272.57L1549.48,1272.57L1549.48,1296.24ZM1534.08,1308.38L1534.08,1260.43L1552.7,1260.43C1557.43,1260.43 1560.95,1260.64 1563.26,1261.07C1565.58,1261.49 1567.59,1262.19 1569.3,1263.16C1572.62,1265.12 1575.12,1267.86 1576.79,1271.4C1578.46,1274.94 1579.3,1279.29 1579.3,1284.45C1579.3,1289.88 1578.26,1294.44 1576.19,1298.14C1574.12,1301.84 1571.06,1304.59 1567.02,1306.39C1565.46,1307.11 1563.5,1307.62 1561.15,1307.92C1558.79,1308.23 1555.02,1308.38 1549.84,1308.38L1534.08,1308.38Z" style="fill:#f9f9f9;fill-rule:nonzero;"/>
                </g>
                <g transform="matrix(0.560984,-0.140521,0.101243,0.778629,342.417,382.298)">
                    <path d="M1586.15,1303.47L1586.15,1255.52L1624.47,1255.52L1624.47,1267.01L1601.55,1267.01L1601.55,1273.39L1620.92,1273.39L1620.92,1284.39L1601.55,1284.39L1601.55,1291.82L1625.41,1291.82L1625.41,1303.47L1586.15,1303.47Z" style="fill:#f9f9f9;fill-rule:nonzero;"/>
                </g>
                <g transform="matrix(0.55047,-0.205572,0.14811,0.764035,300.065,513.41)">
                    <path d="M1628.06,1247.35L1643.82,1247.35L1651.89,1278.3L1660.55,1247.35L1675.69,1247.35L1659.54,1295.3L1644.21,1295.3L1628.06,1247.35Z" style="fill:#f9f9f9;fill-rule:nonzero;"/>
                </g>
                <g transform="matrix(0.534456,-0.275189,0.198267,0.741809,265.348,667.844)">
                    <path d="M1679.14,1282.63L1679.14,1234.67L1717.46,1234.67L1717.46,1246.17L1694.54,1246.17L1694.54,1252.55L1713.91,1252.55L1713.91,1263.55L1694.54,1263.55L1694.54,1270.97L1718.4,1270.97L1718.4,1282.63L1679.14,1282.63Z" style="fill:#f9f9f9;fill-rule:nonzero;"/>
                </g>
                <g transform="matrix(0.514017,-0.342072,0.246455,0.713439,244.191,829.904)">
                    <path d="M1722.77,1266.49L1722.77,1218.54L1738.16,1218.54L1738.16,1253.76L1759.1,1253.76L1759.1,1266.49L1722.77,1266.49Z" style="fill:#f9f9f9;fill-rule:nonzero;"/>
                </g>
                <g transform="matrix(0.487003,-0.411227,0.29628,0.675945,235.55,1009.27)">
                    <path d="M1772.74,1225.64C1772.74,1230.17 1773.5,1233.51 1775.02,1235.63C1776.54,1237.76 1778.92,1238.82 1782.15,1238.82C1785.36,1238.82 1787.72,1237.77 1789.22,1235.65C1790.71,1233.53 1791.46,1230.2 1791.46,1225.64C1791.46,1221.06 1790.71,1217.71 1789.22,1215.6C1787.72,1213.48 1785.36,1212.42 1782.15,1212.42C1778.92,1212.42 1776.54,1213.49 1775.02,1215.61C1773.5,1217.74 1772.74,1221.08 1772.74,1225.64ZM1757.22,1225.64C1757.22,1217.83 1759.45,1211.66 1763.91,1207.15C1768.37,1202.63 1774.45,1200.38 1782.15,1200.38C1789.83,1200.38 1795.9,1202.63 1800.35,1207.15C1804.8,1211.66 1807.02,1217.83 1807.02,1225.64C1807.02,1233.43 1804.8,1239.59 1800.35,1244.11C1795.9,1248.64 1789.83,1250.9 1782.15,1250.9C1774.45,1250.9 1768.37,1248.64 1763.91,1244.11C1759.45,1239.59 1757.22,1233.43 1757.22,1225.64Z" style="fill:#f9f9f9;fill-rule:nonzero;"/>
                </g>
                <g transform="matrix(0.44348,-0.497115,0.35816,0.615537,250.776,1253.78)">
                    <path d="M1821.61,1194.58L1826.55,1194.58C1829.77,1194.58 1831.91,1194.22 1833,1193.51C1834.08,1192.79 1834.63,1191.52 1834.63,1189.7C1834.63,1187.85 1834.11,1186.57 1833.06,1185.86C1832.02,1185.14 1829.85,1184.78 1826.55,1184.78L1821.61,1184.78L1821.61,1194.58ZM1806.21,1220.98L1806.21,1173.03L1825.93,1173.03C1830.3,1173.03 1833.75,1173.29 1836.3,1173.8C1838.85,1174.31 1840.99,1175.13 1842.7,1176.25C1844.91,1177.75 1846.56,1179.61 1847.65,1181.82C1848.73,1184.03 1849.28,1186.66 1849.28,1189.7C1849.28,1195.06 1847.69,1199.16 1844.52,1202.02C1841.35,1204.87 1836.79,1206.3 1830.82,1206.3L1821.61,1206.3L1821.61,1220.98L1806.21,1220.98Z" style="fill:#f9f9f9;fill-rule:nonzero;"/>
                </g>
                <g transform="matrix(0.391667,-0.574878,0.414187,0.543622,295.343,1496.14)">
                    <path d="M1844.61,1190.14L1844.61,1142.19L1882.92,1142.19L1882.92,1153.68L1860.01,1153.68L1860.01,1160.06L1879.38,1160.06L1879.38,1171.07L1860.01,1171.07L1860.01,1178.49L1883.87,1178.49L1883.87,1190.14L1844.61,1190.14Z" style="fill:#f9f9f9;fill-rule:nonzero;"/>
                </g>
                <g transform="matrix(0.320432,-0.654375,0.471463,0.44475,382.158,1769.63)">
                    <path d="M1892.17,1129.23L1899.17,1129.23C1901.62,1129.23 1903.31,1128.9 1904.25,1128.24C1905.18,1127.58 1905.65,1126.42 1905.65,1124.77C1905.65,1123.08 1905.18,1121.9 1904.25,1121.24C1903.31,1120.58 1901.49,1120.25 1898.78,1120.25L1892.17,1120.25L1892.17,1129.23ZM1876.97,1156.58L1876.97,1108.63L1899.92,1108.63C1907.1,1108.63 1912.23,1109.7 1915.3,1111.85C1918.37,1114 1919.9,1117.52 1919.9,1122.43C1919.9,1125.36 1919.28,1127.79 1918.02,1129.72C1916.76,1131.65 1914.82,1133.18 1912.19,1134.31C1914.86,1134.87 1916.8,1135.99 1918.02,1137.65C1919.23,1139.31 1919.88,1141.74 1919.97,1144.95L1920.23,1151.63C1920.23,1151.67 1920.24,1151.73 1920.26,1151.79C1920.33,1153.7 1920.78,1154.7 1921.63,1154.79L1921.63,1156.58L1906.1,1156.58C1905.82,1155.42 1905.61,1154.42 1905.47,1153.56C1905.33,1152.71 1905.26,1152.04 1905.26,1151.56L1905.26,1146.78C1905.26,1144.3 1904.77,1142.56 1903.79,1141.55C1902.81,1140.54 1901.12,1140.04 1898.71,1140.04L1892.17,1140.04L1892.17,1156.58L1876.97,1156.58Z" style="fill:#f9f9f9;fill-rule:nonzero;"/>
                </g>
            </g>
            <g transform="matrix(1,0,0,1,303.341,923.525)">
                <path d="M0,-299.626C-39.189,-299.626 -76.032,-284.364 -103.743,-256.653C-131.454,-228.943 -146.715,-192.1 -146.715,-152.911C-146.715,-141.307 -145.333,-129.771 -142.645,-118.568C-147.702,-110.854 -152.249,-103.028 -155.883,-95.35C-163.036,-113.897 -166.762,-133.757 -166.762,-153.802C-166.762,-197.1 -149.901,-237.807 -119.285,-268.423C-88.668,-299.039 -47.961,-315.9 -4.663,-315.9C47.042,-315.9 94.846,-291.506 125.183,-250.892L110.343,-249.651C82.836,-281.064 42.903,-299.626 0,-299.626M55.96,-206.318C53.507,-206.318 51.518,-208.308 51.518,-210.762C51.518,-213.215 53.507,-215.204 55.96,-215.204C58.414,-215.204 60.403,-213.215 60.403,-210.762C60.403,-208.308 58.414,-206.318 55.96,-206.318M-28.387,-76.678C-25.934,-76.678 -23.944,-74.689 -23.944,-72.234C-23.944,-69.781 -25.934,-67.792 -28.387,-67.792C-30.841,-67.792 -32.83,-69.781 -32.83,-72.234C-32.83,-74.689 -30.841,-76.678 -28.387,-76.678M275.798,-261.458C273.79,-261.823 271.979,-261.427 269.975,-261.214C268.271,-261.034 266.546,-260.953 265.002,-260.129C261.163,-258.079 261.515,-253.756 259.829,-250.279C257.098,-244.651 251.71,-250.003 247.234,-248.217C244.683,-247.198 240.974,-244.829 239.699,-242.299C238.906,-240.724 239.195,-238.971 239.08,-237.269C238.88,-234.304 237.597,-232.573 235.023,-231.147C232.613,-229.812 230.073,-230.471 227.533,-231.037C225.373,-231.519 223.452,-231.449 221.344,-230.718C217.944,-229.537 214.434,-226.91 212.974,-223.538C212.053,-221.411 212.493,-218.967 211.367,-216.936C209.796,-214.102 207.043,-213.07 204.021,-213.744C200.009,-214.639 194.919,-214.653 191.09,-212.902C190.871,-216.608 190.145,-220.13 188.843,-223.423C189.763,-223.473 190.703,-223.46 191.659,-223.434C194.104,-223.367 196.619,-222.345 199.02,-222.664C201.061,-222.935 203.084,-223.978 204.567,-225.396C206.168,-226.927 207.237,-228.89 207.591,-231.068C208.175,-234.668 209.034,-236.989 212.275,-239.026C215.509,-241.058 217.993,-240.512 221.494,-239.951C223.506,-239.629 225.567,-239.418 227.502,-240.162C231.42,-241.668 234.176,-244.702 234.559,-248.87C234.686,-250.244 234.383,-252.303 234.974,-253.543C235.515,-254.677 237.032,-255.444 238.046,-256.098C238.973,-256.693 240.182,-257.7 241.251,-257.949C242.813,-258.312 244.605,-257.355 246.098,-257.044C250.864,-256.05 253.694,-258.067 255.488,-262.36C256.441,-264.641 256.351,-268.226 258.581,-269.702C260.327,-270.858 265.275,-271.26 267.272,-270.897C269.3,-270.528 270.17,-273.636 268.128,-274.007C266.12,-274.372 264.309,-273.975 262.305,-273.763C260.601,-273.582 258.876,-273.502 257.333,-272.678C253.493,-270.628 253.846,-266.305 252.159,-262.828C249.428,-257.199 244.04,-262.552 239.564,-260.766C237.013,-259.747 233.304,-257.378 232.029,-254.848C231.236,-253.272 231.525,-251.52 231.41,-249.817C231.21,-246.853 229.927,-245.122 227.353,-243.696C224.943,-242.36 222.403,-243.02 219.863,-243.586C217.703,-244.067 215.782,-243.998 213.675,-243.267C210.274,-242.086 206.764,-239.459 205.304,-236.087C204.383,-233.959 204.824,-231.516 203.697,-229.484C202.126,-226.65 199.374,-225.619 196.351,-226.293C193.608,-226.904 190.362,-227.104 187.359,-226.61C186.089,-228.964 184.481,-231.179 182.502,-233.235C182.698,-233.231 182.896,-233.227 183.094,-233.221C185.538,-233.153 188.054,-232.132 190.454,-232.45C192.495,-232.722 194.519,-233.764 196.002,-235.183C197.603,-236.713 198.672,-238.677 199.025,-240.855C199.609,-244.455 200.468,-246.775 203.71,-248.813C206.943,-250.845 209.428,-250.298 212.928,-249.737C214.94,-249.416 217.002,-249.205 218.937,-249.949C222.855,-251.455 225.611,-254.489 225.994,-258.656C226.12,-260.031 225.817,-262.089 226.409,-263.329C226.95,-264.464 228.466,-265.231 229.481,-265.885C230.407,-266.48 231.616,-267.487 232.686,-267.735C234.248,-268.099 236.04,-267.142 237.532,-266.83C242.299,-265.836 245.129,-267.854 246.922,-272.147C247.875,-274.427 247.786,-278.013 250.016,-279.489C251.761,-280.646 256.71,-281.047 258.707,-280.684C260.735,-280.315 261.606,-283.423 259.563,-283.794C257.555,-284.158 255.743,-283.762 253.74,-283.55C252.036,-283.369 250.311,-283.288 248.767,-282.464C244.927,-280.415 245.28,-276.092 243.594,-272.615C240.862,-266.986 235.475,-272.339 230.999,-270.552C228.447,-269.534 224.738,-267.164 223.464,-264.634C222.67,-263.06 222.959,-261.307 222.845,-259.605C222.646,-256.64 221.361,-254.909 218.788,-253.482C216.377,-252.147 213.838,-252.806 211.297,-253.372C209.137,-253.855 207.216,-253.785 205.109,-253.054C201.708,-251.872 198.199,-249.245 196.739,-245.874C195.818,-243.746 196.258,-241.302 195.132,-239.271C193.561,-236.437 190.808,-235.405 187.785,-236.08C185.096,-236.68 181.921,-236.881 178.967,-236.424C177.063,-237.921 174.919,-239.313 172.508,-240.585C171.799,-241.267 171.202,-241.919 170.69,-242.547C172.452,-243.032 174.327,-243.032 176.265,-242.979C178.709,-242.911 181.225,-241.89 183.626,-242.208C185.667,-242.48 187.691,-243.522 189.173,-244.94C190.774,-246.471 191.843,-248.435 192.197,-250.613C192.781,-254.213 193.64,-256.533 196.882,-258.57C200.115,-260.603 202.599,-260.056 206.1,-259.495C208.112,-259.174 210.173,-258.963 212.109,-259.707C216.026,-261.213 218.782,-264.247 219.166,-268.414C219.292,-269.789 218.989,-271.848 219.58,-273.087C220.121,-274.222 221.638,-274.989 222.653,-275.643C223.579,-276.238 224.788,-277.245 225.857,-277.493C227.42,-277.856 229.211,-276.899 230.704,-276.589C235.47,-275.595 238.3,-277.612 240.094,-281.904C241.047,-284.185 240.958,-287.771 243.187,-289.247C244.933,-290.403 249.881,-290.805 251.878,-290.442C253.907,-290.073 254.777,-293.181 252.735,-293.552C250.726,-293.917 248.915,-293.52 246.912,-293.308C245.208,-293.127 243.483,-293.046 241.938,-292.222C238.099,-290.173 238.452,-285.85 236.765,-282.373C234.034,-276.744 228.646,-282.097 224.17,-280.31C221.619,-279.292 217.91,-276.922 216.635,-274.392C215.842,-272.817 216.131,-271.064 216.017,-269.362C215.817,-266.397 214.533,-264.667 211.959,-263.24C209.549,-261.905 207.009,-262.564 204.469,-263.131C202.309,-263.612 200.388,-263.543 198.281,-262.812C194.88,-261.631 191.37,-259.003 189.911,-255.632C188.989,-253.504 189.43,-251.06 188.304,-249.028C186.733,-246.195 183.979,-245.164 180.957,-245.838C177.25,-246.664 172.622,-246.737 168.919,-245.362C165.981,-252.086 174.574,-255.018 174.574,-255.018L137.169,-251.893C105.176,-298.189 52.498,-326.221 -4.663,-326.221C-50.718,-326.221 -94.016,-308.285 -126.582,-275.72C-159.147,-243.154 -177.082,-199.856 -177.082,-153.802C-177.082,-128.886 -171.669,-104.236 -161.346,-81.766C-162.497,-78.213 -163.382,-74.73 -163.96,-71.345C-164.417,-71.287 -164.879,-71.227 -165.353,-71.177C-167.057,-70.996 -168.781,-70.915 -170.326,-70.091C-174.166,-68.041 -173.812,-63.718 -175.499,-60.242C-178.23,-54.613 -183.618,-59.965 -188.094,-58.179C-190.645,-57.16 -194.354,-54.791 -195.629,-52.261C-196.422,-50.686 -196.133,-48.934 -196.248,-47.23C-196.447,-44.266 -197.731,-42.536 -200.305,-41.109C-202.715,-39.773 -205.255,-40.433 -207.795,-40.999C-209.955,-41.481 -211.876,-41.412 -213.983,-40.68C-217.384,-39.499 -220.894,-36.872 -222.354,-33.5C-223.275,-31.373 -222.834,-28.929 -223.96,-26.897C-225.532,-24.064 -228.285,-23.032 -231.308,-23.706C-235.374,-24.613 -240.551,-24.619 -244.397,-22.796C-249.223,-20.508 -251.101,-16.091 -252.025,-11.156C-252.405,-9.128 -249.298,-8.259 -248.916,-10.3C-248.296,-13.606 -247.614,-16.45 -244.88,-18.71C-242.246,-20.888 -239.208,-20.936 -235.999,-20.848C-233.555,-20.78 -231.039,-19.758 -228.638,-20.077C-226.597,-20.349 -224.574,-21.391 -223.091,-22.809C-221.49,-24.34 -220.421,-26.303 -220.067,-28.481C-219.483,-32.082 -218.625,-34.402 -215.382,-36.439C-212.149,-38.471 -209.665,-37.925 -206.165,-37.364C-204.152,-37.042 -202.091,-36.832 -200.155,-37.575C-196.238,-39.082 -193.482,-42.116 -193.099,-46.283C-192.972,-47.658 -193.275,-49.716 -192.684,-50.956C-192.143,-52.091 -190.626,-52.857 -189.612,-53.511C-188.686,-54.107 -187.477,-55.114 -186.407,-55.362C-184.845,-55.725 -183.053,-54.769 -181.56,-54.457C-176.794,-53.463 -173.964,-55.48 -172.17,-59.773C-171.217,-62.054 -171.307,-65.64 -169.077,-67.116C-168.131,-67.742 -166.245,-68.146 -164.397,-68.327C-164.913,-63.921 -164.861,-59.703 -164.145,-55.736C-164.923,-53.791 -165.225,-51.552 -166.18,-49.583C-168.912,-43.954 -174.299,-49.306 -178.775,-47.52C-181.327,-46.502 -185.036,-44.132 -186.31,-41.602C-187.103,-40.027 -186.814,-38.274 -186.929,-36.572C-187.128,-33.607 -188.413,-31.877 -190.986,-30.45C-193.396,-29.115 -195.936,-29.773 -198.477,-30.341C-200.637,-30.822 -202.558,-30.753 -204.665,-30.022C-208.065,-28.84 -211.575,-26.213 -213.035,-22.841C-213.956,-20.714 -213.516,-18.27 -214.642,-16.238C-216.213,-13.405 -218.966,-12.374 -221.989,-13.048C-226.055,-13.954 -231.232,-13.96 -235.078,-12.137C-239.904,-9.849 -241.782,-5.432 -242.707,-0.498C-243.086,1.53 -239.979,2.4 -239.597,0.359C-238.977,-2.947 -238.295,-5.791 -235.561,-8.052C-232.927,-10.229 -229.89,-10.276 -226.68,-10.189C-224.236,-10.121 -221.72,-9.1 -219.32,-9.418C-217.278,-9.689 -215.255,-10.731 -213.772,-12.15C-212.171,-13.682 -211.102,-15.645 -210.749,-17.822C-210.165,-21.423 -209.306,-23.743 -206.063,-25.78C-202.831,-27.813 -200.346,-27.266 -196.846,-26.706C-194.833,-26.384 -192.772,-26.173 -190.837,-26.917C-186.919,-28.423 -184.163,-31.457 -183.78,-35.624C-183.654,-36.999 -183.957,-39.057 -183.365,-40.297C-182.824,-41.432 -181.308,-42.199 -180.293,-42.853C-179.367,-43.448 -178.158,-44.455 -177.088,-44.703C-175.526,-45.066 -173.734,-44.109 -172.241,-43.798C-167.475,-42.804 -164.645,-44.822 -162.851,-49.114C-162.738,-49.385 -162.641,-49.674 -162.552,-49.975C-161.098,-46.165 -158.881,-42.66 -155.79,-39.53C-155.954,-39.055 -156.138,-38.587 -156.358,-38.134C-159.089,-32.506 -164.477,-37.857 -168.953,-36.071C-171.504,-35.053 -175.213,-32.684 -176.487,-30.153C-177.281,-28.578 -176.992,-26.825 -177.106,-25.123C-177.306,-22.158 -178.59,-20.429 -181.164,-19.002C-183.574,-17.666 -186.113,-18.325 -188.654,-18.892C-190.814,-19.373 -192.735,-19.305 -194.842,-18.572C-198.243,-17.392 -201.752,-14.765 -203.212,-11.393C-204.133,-9.266 -203.693,-6.821 -204.819,-4.79C-206.39,-1.956 -209.143,-0.925 -212.166,-1.599C-216.232,-2.506 -221.409,-2.512 -225.255,-0.689C-230.082,1.6 -231.959,6.017 -232.884,10.951C-233.264,12.979 -230.156,13.849 -229.774,11.809C-229.154,8.501 -228.473,5.657 -225.738,3.397C-223.105,1.22 -220.067,1.172 -216.858,1.26C-214.413,1.327 -211.898,2.35 -209.497,2.03C-207.456,1.759 -205.432,0.717 -203.949,-0.701C-202.349,-2.232 -201.279,-4.195 -200.926,-6.374C-200.342,-9.974 -199.483,-12.295 -196.241,-14.332C-193.008,-16.363 -190.523,-15.817 -187.023,-15.257C-185.011,-14.935 -182.949,-14.725 -181.014,-15.468C-177.096,-16.974 -174.34,-20.008 -173.958,-24.176C-173.831,-25.55 -174.134,-27.608 -173.542,-28.849C-173.001,-29.982 -171.485,-30.75 -170.47,-31.403C-169.544,-32 -168.335,-33.007 -167.266,-33.255C-165.703,-33.617 -163.912,-32.661 -162.419,-32.35C-157.833,-31.393 -155.042,-33.231 -153.24,-37.195C-151.391,-35.666 -149.292,-34.247 -146.937,-32.942C-148.303,-30.738 -148.479,-27.853 -149.675,-25.388C-152.406,-19.76 -157.794,-25.111 -162.27,-23.325C-164.821,-22.307 -168.53,-19.938 -169.805,-17.407C-170.598,-15.832 -170.309,-14.08 -170.424,-12.377C-170.624,-9.412 -171.907,-7.682 -174.481,-6.256C-176.891,-4.92 -179.431,-5.579 -181.971,-6.146C-184.131,-6.627 -186.052,-6.558 -188.16,-5.826C-191.56,-4.646 -195.07,-2.019 -196.53,1.353C-197.451,3.48 -197.011,5.925 -198.137,7.956C-199.708,10.79 -202.46,11.821 -205.483,11.147C-209.55,10.24 -214.727,10.234 -218.573,12.058C-223.399,14.347 -225.277,18.763 -226.201,23.697C-226.582,25.726 -223.474,26.595 -223.091,24.555C-222.472,21.247 -221.79,18.403 -219.056,16.144C-216.422,13.966 -213.384,13.918 -210.175,14.006C-207.73,14.073 -205.215,15.096 -202.814,14.776C-200.773,14.506 -198.75,13.463 -197.267,12.045C-195.666,10.514 -194.597,8.551 -194.243,6.372C-193.659,2.772 -192.8,0.451 -189.559,-1.586C-186.325,-3.617 -183.841,-3.071 -180.34,-2.511C-178.328,-2.189 -176.267,-1.978 -174.332,-2.722C-170.414,-4.228 -167.658,-7.262 -167.275,-11.43C-167.148,-12.804 -167.451,-14.862 -166.86,-16.103C-166.319,-17.236 -164.802,-18.004 -163.788,-18.657C-162.861,-19.253 -161.652,-20.261 -160.583,-20.509C-159.021,-20.871 -157.229,-19.915 -155.736,-19.604C-150.97,-18.609 -148.14,-20.627 -146.346,-24.92C-145.629,-26.635 -145.502,-29.089 -144.534,-30.828C-136.915,-21.875 -148.155,-18.046 -148.155,-18.046L-72.042,-24.403C-72.042,-24.403 143.923,-52.423 -21.629,-91.391C-162.569,-124.564 -99.188,-167.235 -77.227,-179.189C-68.321,-176.394 -38.155,-168.156 -23.168,-179.535L-44.803,-197L-42.972,-220.319C-42.972,-220.319 -78.767,-205.836 -83.414,-188.948C-93.842,-178.661 -118.267,-153.564 -137.646,-125.935C-139.376,-134.79 -140.265,-143.828 -140.265,-152.911C-140.265,-190.377 -125.675,-225.601 -99.182,-252.094C-72.69,-278.586 -37.466,-293.176 0,-293.176C39.361,-293.176 76.107,-276.835 102.25,-248.976L98.46,-248.659C98.46,-248.659 -117.504,-220.64 48.048,-181.673C188.988,-148.499 125.607,-105.828 103.646,-93.873C94.74,-96.669 64.574,-104.906 49.587,-93.527L71.222,-76.063L69.391,-52.743C69.391,-52.743 105.186,-67.228 109.833,-84.114C128.208,-102.24 190.036,-166.345 191.144,-209.264C193.612,-210.928 196.398,-210.966 199.329,-210.885C201.773,-210.818 204.289,-209.796 206.689,-210.115C208.73,-210.386 210.754,-211.429 212.237,-212.847C213.838,-214.378 214.907,-216.341 215.261,-218.52C215.845,-222.119 216.704,-224.44 219.945,-226.478C223.179,-228.509 225.663,-227.963 229.164,-227.402C231.176,-227.08 233.237,-226.869 235.172,-227.613C239.09,-229.119 241.846,-232.153 242.229,-236.321C242.355,-237.695 242.053,-239.754 242.644,-240.994C243.185,-242.129 244.702,-242.896 245.716,-243.549C246.643,-244.145 247.852,-245.151 248.921,-245.4C250.483,-245.763 252.275,-244.807 253.768,-244.495C258.534,-243.501 261.364,-245.519 263.158,-249.812C264.111,-252.092 264.021,-255.677 266.25,-257.154C267.997,-258.31 272.945,-258.711 274.941,-258.349C276.97,-257.98 277.84,-261.088 275.798,-261.458" style="fill:#f9f9f9;fill-rule:nonzero;"/>
            </g>
        </g>
    </g>
</svg>
