<?xml version="1.0" encoding="UTF-8" standalone="no"?>
<!DOCTYPE svg PUBLIC "-//W3C//DTD SVG 1.1//EN" "http://www.w3.org/Graphics/SVG/1.1/DTD/svg11.dtd">
<svg width="100%" height="100%" viewBox="0 0 245 206" version="1.1" xmlns="http://www.w3.org/2000/svg" xmlns:xlink="http://www.w3.org/1999/xlink" xml:space="preserve" xmlns:serif="http://www.serif.com/" style="fill-rule:evenodd;clip-rule:evenodd;stroke-linejoin:round;stroke-miterlimit:1.41421;">
    <g transform="matrix(1,0,0,1,-948.377,-1896.09)">
        <g transform="matrix(1,0,0,1,-2146.38,35.6152)">
            <g id="coding" transform="matrix(0.687629,0,0,0.687629,722.365,695.871)">
                <g transform="matrix(1,0,0,1.97178,710.693,-1847.66)">
                    <rect x="2739.41" y="1796" width="355.346" height="151.27" style="fill:none;"/>
                </g>
                <g id="coding1" serif:id="coding" transform="matrix(0.385847,0,0,0.385847,3627.77,1842.78)">
                    <g transform="matrix(1,0,0,1,-235,-235)">
                        <g>
                            <path d="M167.313,209.123C165.193,205.564 160.59,204.397 157.032,206.518L69.663,258.557C67.392,259.909 66,262.357 66,265C66,267.643 67.392,270.091 69.662,271.443L157.031,323.482C158.234,324.199 159.556,324.54 160.862,324.54C163.418,324.54 165.91,323.232 167.312,320.877C169.432,317.318 168.265,312.715 164.707,310.596L88.156,265L164.707,219.404C168.266,217.285 169.433,212.682 167.313,209.123Z" style="fill-rule:nonzero;"/>
                            <path d="M302.688,320.877C304.091,323.233 306.582,324.54 309.138,324.54C310.444,324.54 311.766,324.199 312.969,323.482L400.338,271.443C402.609,270.09 404,267.643 404,265C404,262.357 402.608,259.909 400.338,258.557L312.969,206.518C309.411,204.398 304.806,205.564 302.688,209.123C300.568,212.682 301.735,217.285 305.293,219.404L381.844,265L305.293,310.596C301.734,312.715 300.567,317.318 302.688,320.877Z" style="fill-rule:nonzero;"/>
                            <path d="M263.72,208.78L193.827,312.858C191.518,316.296 192.433,320.956 195.872,323.266C197.156,324.128 198.609,324.54 200.047,324.54C202.462,324.54 204.833,323.375 206.28,321.22L276.173,217.142C278.482,213.704 277.567,209.044 274.128,206.734C270.687,204.425 266.028,205.342 263.72,208.78Z" style="fill-rule:nonzero;"/>
                            <path d="M462.5,22.5L7.5,22.5C3.357,22.5 0,25.858 0,30L0,440C0,444.142 3.357,447.5 7.5,447.5L462.5,447.5C466.643,447.5 470,444.142 470,440L470,360C470,355.858 466.643,352.5 462.5,352.5C458.357,352.5 455,355.858 455,360L455,432.5L15,432.5L15,97.5L455,97.5L455,330C455,334.142 458.357,337.5 462.5,337.5C466.643,337.5 470,334.142 470,330L470,30C470,25.858 466.643,22.5 462.5,22.5ZM15,37.5L292.5,37.5L292.5,82.5L15,82.5L15,37.5ZM307.5,82.5L307.5,37.5L455,37.5L455,82.5L307.5,82.5Z" style="fill-rule:nonzero;"/>
                            <path d="M381.5,52C377.089,52 373.5,55.589 373.5,60C373.5,64.411 377.089,68 381.5,68C385.911,68 389.5,64.411 389.5,60C389.5,55.589 385.911,52 381.5,52Z" style="fill-rule:nonzero;"/>
                            <path d="M340.5,52C336.089,52 332.5,55.589 332.5,60C332.5,64.411 336.089,68 340.5,68C344.911,68 348.5,64.411 348.5,60C348.5,55.589 344.911,52 340.5,52Z" style="fill-rule:nonzero;"/>
                            <path d="M422.5,52C418.089,52 414.5,55.589 414.5,60C414.5,64.411 418.089,68 422.5,68C426.911,68 430.5,64.411 430.5,60C430.5,55.589 426.911,52 422.5,52Z" style="fill-rule:nonzero;"/>
                        </g>
                    </g>
                </g>
            </g>
        </g>
    </g>
</svg>
