<?xml version="1.0" encoding="UTF-8" standalone="no"?>
<!DOCTYPE svg PUBLIC "-//W3C//DTD SVG 1.1//EN" "http://www.w3.org/Graphics/SVG/1.1/DTD/svg11.dtd">
<svg width="100%" height="100%" viewBox="0 0 245 206" version="1.1" xmlns="http://www.w3.org/2000/svg" xmlns:xlink="http://www.w3.org/1999/xlink" xml:space="preserve" xmlns:serif="http://www.serif.com/" style="fill-rule:evenodd;clip-rule:evenodd;stroke-linejoin:round;stroke-miterlimit:1.41421;">
    <g transform="matrix(1,0,0,1,-240.426,-1690.99)">
        <g transform="matrix(1,0,0,1,-2146.38,35.6152)">
            <g id="design" transform="matrix(0.687629,0,0,0.687629,747.454,490.772)">
                <g transform="matrix(1,0,0,1.97178,-355.346,-1847.66)">
                    <rect x="2739.41" y="1796" width="355.346" height="151.27" style="fill:none;"/>
                </g>
                <g id="sketch" transform="matrix(0.354196,0,0,0.354196,2561.73,1842.78)">
                    <g transform="matrix(1,0,0,1,-255.999,-255.999)">
                        <path d="M74.664,85.179C56.991,85.179 42.664,99.506 42.664,117.179L42.664,202.512L63.997,202.512L63.997,117.179C63.997,111.288 68.773,106.512 74.664,106.512L330.664,106.512L330.664,85.179L74.664,85.179Z" style="fill-rule:nonzero;"/>
                        <path d="M74.664,405.179C68.773,405.179 63.997,400.403 63.997,394.512L63.997,287.845L42.664,287.845L42.664,394.512C42.664,412.185 56.991,426.512 74.664,426.512L181.331,426.512L181.331,405.179L74.664,405.179Z" style="fill-rule:nonzero;"/>
                        <path d="M338.206,432.688L79.155,173.637C74.99,169.473 68.238,169.473 64.072,173.637L3.123,234.587C-1.041,238.752 -1.041,245.504 3.123,249.67L262.174,508.72C264.174,510.721 266.887,511.845 269.715,511.845C272.544,511.844 275.256,510.72 277.256,508.72L338.205,447.771C342.37,443.605 342.37,436.853 338.206,432.688ZM269.715,486.096L25.747,242.128L71.614,196.261L315.582,440.23L269.715,486.096Z" style="fill-rule:nonzero;"/>
                        <path d="M469.331,405.179L309.331,405.179L309.331,426.512L426.664,426.512L426.664,479.845C426.664,485.736 431.44,490.512 437.331,490.512L469.331,490.512C492.895,490.512 511.998,471.41 511.998,447.845C511.998,424.281 492.895,405.179 469.331,405.179ZM469.331,469.179L447.998,469.179L447.998,426.512L469.331,426.512C481.113,426.512 490.664,436.063 490.664,447.845C490.664,459.628 481.113,469.179 469.331,469.179Z" style="fill-rule:nonzero;"/>
                        <path d="M469.331,85.179L415.998,85.179L415.998,106.512L469.331,106.512C481.113,106.512 490.664,116.063 490.664,127.845L490.664,447.845L511.997,447.845L511.997,127.845C511.998,104.281 492.895,85.179 469.331,85.179Z" style="fill-rule:nonzero;"/>
                        <g transform="matrix(0.7071,-0.7071,0.7071,0.7071,-175.262,227.24)">
                            <rect x="164.042" y="314.513" width="45.259" height="21.333"/>
                        </g>
                        <g transform="matrix(0.7071,-0.7071,0.7071,0.7071,-157.589,184.574)">
                            <rect x="121.376" y="271.846" width="45.259" height="21.333"/>
                        </g>
                        <g transform="matrix(0.7071,-0.7071,0.7071,0.7071,-192.942,269.89)">
                            <rect x="206.686" y="357.18" width="45.259" height="21.333"/>
                        </g>
                        <g transform="matrix(0.7071,-0.7071,0.7071,0.7071,-210.624,312.577)">
                            <rect x="249.372" y="399.868" width="45.259" height="21.333"/>
                        </g>
                        <g transform="matrix(0.7071,-0.7071,0.7071,0.7071,-139.924,141.885)">
                            <rect x="78.679" y="229.18" width="45.259" height="21.333"/>
                        </g>
                        <path d="M460.094,23.824L445.352,9.083C432.879,-2.824 413.249,-2.824 400.776,9.083L238.579,171.28C234.415,175.445 234.415,182.197 238.579,186.363L282.814,230.598C284.809,232.606 287.525,233.731 290.355,233.723C293.184,233.722 295.896,232.598 297.896,230.598L460.094,68.4C460.099,68.395 460.104,68.39 460.109,68.385C472.41,56.076 472.403,36.125 460.094,23.824ZM445.022,53.307L290.355,207.973L261.203,178.821L415.87,24.165C419.898,20.316 426.242,20.316 430.27,24.165L445.022,38.896C445.023,38.898 445.025,38.899 445.027,38.901C449.003,42.88 449.001,49.33 445.022,53.307Z" style="fill-rule:nonzero;"/>
                        <path d="M286.931,212.944L240.894,228.315L256.265,182.203L235.998,175.451L213.875,241.808C213.513,242.896 213.328,244.035 213.328,245.181C213.329,251.072 218.106,255.847 223.997,255.845C225.126,255.849 226.249,255.676 227.325,255.333L293.682,233.21L286.931,212.944Z" style="fill-rule:nonzero;"/>
                        <g transform="matrix(0.7071,-0.7071,0.7071,0.7071,69.1923,303.49)">
                            <rect x="390.275" y="36.943" width="21.333" height="62.56"/>
                        </g>
                        <rect x="223.998" y="234.512" width="160" height="21.333"/>
                        <rect x="405.331" y="234.512" width="21.333" height="21.333"/>
                        <rect x="447.998" y="234.512" width="21.333" height="21.333"/>
                    </g>
                </g>
            </g>
        </g>
    </g>
</svg>
