<?xml version="1.0" encoding="UTF-8" standalone="no"?>
<!DOCTYPE svg PUBLIC "-//W3C//DTD SVG 1.1//EN" "http://www.w3.org/Graphics/SVG/1.1/DTD/svg11.dtd">
<svg width="100%" height="100%" viewBox="0 0 135 135" version="1.1" xmlns="http://www.w3.org/2000/svg" xmlns:xlink="http://www.w3.org/1999/xlink" xml:space="preserve" xmlns:serif="http://www.serif.com/" style="fill-rule:evenodd;clip-rule:evenodd;stroke-linejoin:round;stroke-miterlimit:1.41421;">
    <g transform="matrix(1,0,0,1,-1006.49,-945.021)">
        <g transform="matrix(1,0,0,1.50986,15.6462,0)">
            <g id="pr_fb" transform="matrix(4.02923,0,0,2.66862,1058.33,670.6)">
                <g transform="matrix(1,0,0,1,-16.75,-16.75)">
                    <g transform="matrix(1,0,0,1,288,-380.5)">
                        <path d="M-267.9,395.3L-270.2,395.3L-270.2,393.8C-270.2,393.2 -269.8,393.1 -269.6,393.1L-268,393.1L-268,390.6L-270.2,390.6C-272.7,390.6 -273.2,392.5 -273.2,393.6L-273.2,395.3L-274.6,395.3L-274.6,397.9L-273.2,397.9L-273.2,405.1L-270.2,405.1L-270.2,397.9L-268.2,397.9L-267.9,395.3Z" style="fill-rule:nonzero;"/>
                    </g>
                </g>
            </g>
        </g>
    </g>
</svg>
