<?xml version="1.0" encoding="UTF-8" standalone="no"?>
<!DOCTYPE svg PUBLIC "-//W3C//DTD SVG 1.1//EN" "http://www.w3.org/Graphics/SVG/1.1/DTD/svg11.dtd">
<svg width="100%" height="100%" viewBox="0 0 612 612" version="1.1" xmlns="http://www.w3.org/2000/svg" xmlns:xlink="http://www.w3.org/1999/xlink" xml:space="preserve" xmlns:serif="http://www.serif.com/" style="fill-rule:evenodd;clip-rule:evenodd;stroke-linejoin:round;stroke-miterlimit:1.41421;">
    <g>
        <path d="M349.146,402.251C349.146,372.235 331.759,357.436 312.621,341.329L296.959,329.144C292.174,325.249 285.665,320.02 285.665,310.451C285.665,300.881 292.202,294.789 297.849,289.142C316.098,274.788 334.375,259.571 334.375,227.386C334.375,194.31 313.483,176.924 303.497,168.662L330.453,168.662L358.271,153L268.668,153C245.189,153 215.619,156.478 190.805,176.924C172.112,193.003 162.987,215.202 162.987,235.203C162.987,269.114 189.08,303.497 235.175,303.497C239.543,303.497 244.3,303.052 249.112,302.634C246.942,307.864 244.772,312.203 244.772,319.604C244.772,333.068 251.727,341.357 257.819,349.174C238.263,350.482 201.71,352.652 174.754,369.175C149.078,384.392 141.261,406.591 141.261,422.252C141.261,454.438 171.722,484.453 234.786,484.453C309.561,484.454 349.146,443.116 349.146,402.251ZM255.621,291.34C218.206,291.34 201.237,243.048 201.237,213.922C201.237,202.6 203.407,190.888 210.806,181.736C217.761,173.029 229.945,167.354 241.267,167.354C277.375,167.354 296.069,216.092 296.069,247.387C296.069,255.232 295.207,269.141 285.192,279.155C278.237,286.11 266.498,291.312 255.621,291.34ZM256.066,466.177C209.526,466.177 179.51,444.006 179.51,413.128C179.51,382.25 207.356,371.817 216.926,368.341C235.202,362.248 258.681,361.359 262.603,361.359C266.943,361.359 269.113,361.359 272.59,361.804C305.666,385.283 319.992,397.022 319.992,419.22C319.992,446.176 297.821,466.177 256.066,466.177Z" style="fill:white;fill-rule:nonzero;stroke:white;stroke-width:1px;"/>
        <path d="M353.068,317.768L400.164,317.768L400.164,364.836L423.699,364.836L423.699,317.768L470.768,317.768L470.768,294.233L423.699,294.233L423.699,247.165L400.164,247.165L400.164,294.233L353.068,294.233L353.068,317.768Z" style="fill:white;fill-rule:nonzero;stroke:white;stroke-width:1px;"/>
        <path d="M612,306C612,137.004 474.995,0 306,0C137.004,0 0,137.004 0,306C0,474.995 137.004,612 306,612C474.995,612 612,474.995 612,306ZM27.818,306C27.818,152.36 152.36,27.818 306,27.818C459.64,27.818 584.182,152.36 584.182,306C584.182,459.64 459.64,584.182 306,584.182C152.36,584.182 27.818,459.64 27.818,306Z" style="fill:white;fill-rule:nonzero;stroke:white;stroke-width:1px;"/>
    </g>
</svg>
