<?xml version="1.0" encoding="UTF-8" standalone="no"?>
<!DOCTYPE svg PUBLIC "-//W3C//DTD SVG 1.1//EN" "http://www.w3.org/Graphics/SVG/1.1/DTD/svg11.dtd">
<svg width="100%" height="100%" viewBox="0 0 135 135" version="1.1" xmlns="http://www.w3.org/2000/svg" xmlns:xlink="http://www.w3.org/1999/xlink" xml:space="preserve" xmlns:serif="http://www.serif.com/" style="fill-rule:evenodd;clip-rule:evenodd;stroke-linejoin:round;stroke-miterlimit:1.41421;">
    <g transform="matrix(1,0,0,1,-890.51,-945.021)">
        <g transform="matrix(1,0,0,1.50986,15.6462,0)">
            <g id="pr_inst" transform="matrix(4.02923,0,0,2.66862,942.354,670.6)">
                <g transform="matrix(1,0,0,1,-16.75,-16.75)">
                    <path d="M21.3,13C21.3,13.5 20.9,13.8 20.5,13.8C20,13.8 19.7,13.4 19.7,13C19.7,12.6 20.1,12.2 20.5,12.2C20.9,12.2 21.3,12.5 21.3,13ZM24,16.8L24,19.8C24,22.1 22.1,23.9 19.9,23.9L13.9,23.9C11.6,23.9 9.8,22 9.8,19.8L9.8,13.8C9.8,11.5 11.7,9.7 13.9,9.7L19.9,9.7C22.2,9.7 24,11.6 24,13.8L24,16.8ZM22.6,16.8L22.6,13.8C22.6,12.3 21.3,11 19.8,11L13.8,11C12.3,11 11,12.3 11,13.8L11,19.8C11,21.3 12.3,22.6 13.8,22.6L19.8,22.6C21.3,22.6 22.6,21.3 22.6,19.8L22.6,16.8ZM20.4,16.8C20.4,18.9 18.7,20.5 16.7,20.5C14.7,20.5 13,18.8 13,16.8C13,14.8 14.7,13.1 16.7,13.1C18.8,13.1 20.4,14.7 20.4,16.8ZM19.1,16.8C19.1,15.5 18,14.4 16.7,14.4C15.4,14.4 14.3,15.5 14.3,16.8C14.3,18.1 15.4,19.2 16.7,19.2C18,19.1 19.1,18.1 19.1,16.8Z" style="fill-rule:nonzero;"/>
                </g>
            </g>
        </g>
    </g>
</svg>
