<?xml version="1.0" encoding="UTF-8" standalone="no"?>
<!DOCTYPE svg PUBLIC "-//W3C//DTD SVG 1.1//EN" "http://www.w3.org/Graphics/SVG/1.1/DTD/svg11.dtd">
<svg width="100%" height="100%" viewBox="0 0 53 53" version="1.1" xmlns="http://www.w3.org/2000/svg" xmlns:xlink="http://www.w3.org/1999/xlink" xml:space="preserve" xmlns:serif="http://www.serif.com/" style="fill-rule:evenodd;clip-rule:evenodd;stroke-linejoin:round;stroke-miterlimit:1.41421;">
    <g transform="matrix(1,0,0,1,-871.501,-3269.83)">
        <g transform="matrix(1,0,0,1,55,2283.49)">
            <g id="logo_Instagram" transform="matrix(0.124597,0,0,0.124597,842.667,1012.51)">
                <g transform="matrix(1,0,0,1,-210,-209.999)">
                    <clipPath id="_clip1">
                        <rect x="0" y="0" width="420" height="419.997"/>
                    </clipPath>
                    <g clip-path="url(#_clip1)">
                        <path d="M342.818,100.279C342.818,100.281 342.818,100.282 342.818,100.284C342.818,113.615 331.849,124.584 318.518,124.584C305.187,124.584 294.218,113.615 294.218,100.284C294.218,86.953 305.187,75.984 318.518,75.984C318.52,75.984 318.521,75.984 318.523,75.984C331.85,75.987 342.815,86.952 342.818,100.279ZM420,209.999L419.995,210.305L418.615,298.41C417.874,364.067 364.072,417.869 298.415,418.61L210,419.999L209.694,419.993L121.589,418.617C55.931,417.876 2.127,364.075 1.383,298.417L0,209.999L0.006,209.693L1.382,121.585C2.128,55.928 55.931,2.128 121.588,1.385L210,-0.001L210.306,0.005L298.411,1.381C364.067,2.124 417.868,55.925 418.611,121.581L420,209.999ZM380.888,209.999L379.514,122.199C379.01,77.564 342.435,40.989 297.8,40.484L210,39.113L122.2,40.484C77.566,40.99 40.99,77.565 40.484,122.199L39.113,209.999L40.484,297.799C40.989,342.434 77.565,379.01 122.2,379.514L210,380.885L297.8,379.514C342.435,379.011 379.011,342.434 379.514,297.799L380.888,209.999ZM317.84,209.999C317.84,269.159 269.159,317.84 209.999,317.84C150.839,317.84 102.158,269.159 102.158,209.999C102.158,150.839 150.839,102.158 209.999,102.158C209.999,102.158 210,102.158 210,102.158C269.134,102.225 317.774,150.865 317.84,209.999ZM278.733,209.999C278.733,172.293 247.705,141.265 209.999,141.265C172.293,141.265 141.265,172.293 141.265,209.999C141.265,247.705 172.293,278.733 209.999,278.733C209.999,278.733 210,278.733 210,278.733C247.689,278.689 278.689,247.688 278.732,209.999L278.733,209.999Z" style="fill:white;fill-rule:nonzero;"/>
                    </g>
                </g>
            </g>
        </g>
    </g>
</svg>
