<?xml version="1.0" encoding="UTF-8" standalone="no"?>
<!DOCTYPE svg PUBLIC "-//W3C//DTD SVG 1.1//EN" "http://www.w3.org/Graphics/SVG/1.1/DTD/svg11.dtd">
<svg width="100%" height="100%" viewBox="0 0 245 206" version="1.1" xmlns="http://www.w3.org/2000/svg" xmlns:xlink="http://www.w3.org/1999/xlink" xml:space="preserve" xmlns:serif="http://www.serif.com/" style="fill-rule:evenodd;clip-rule:evenodd;stroke-linejoin:round;stroke-miterlimit:1.41421;">
    <g transform="matrix(1,0,0,1,-948.377,-1690.99)">
        <g transform="matrix(1,0,0,1,-2146.38,35.6152)">
            <g id="optimization" transform="matrix(0.687629,0,0,0.687629,966.712,490.772)">
                <g transform="matrix(1,0,0,1.97178,355.346,-1847.66)">
                    <rect x="2739.41" y="1796" width="355.346" height="151.27" style="fill:none;"/>
                </g>
                <g id="computer" transform="matrix(0.487494,0,0,0.487494,3272.43,1842.78)">
                    <g transform="matrix(1,0,0,1,-186,-186)">
                        <path d="M315.69,57.359C312.158,54.705 307.143,55.417 304.489,58.949C304.486,58.953 304.483,58.956 304.481,58.96L304.881,58.96L245.201,138.96L217.201,102.56C215.743,100.663 213.512,99.518 211.121,99.44C208.74,99.372 206.452,100.37 204.881,102.16L159.28,154L125.84,96.88C124.414,94.475 121.836,92.989 119.04,92.96C116.232,92.944 113.62,94.401 112.16,96.8L56.96,186C54.119,189.384 54.56,194.43 57.944,197.271C61.328,200.112 66.374,199.671 69.215,196.287C69.788,195.605 70.242,194.832 70.56,194L118.56,115.76L150.56,170.88C152.791,174.694 157.691,175.976 161.505,173.745C162.229,173.321 162.882,172.786 163.44,172.16L210,120.08L238.56,157.2C240.194,159.05 242.497,160.172 244.96,160.32C247.45,160.295 249.786,159.112 251.28,157.12L317.28,68.56C319.934,65.028 319.222,60.013 315.69,57.359Z" style="fill-rule:nonzero;"/>
                        <g transform="matrix(0.775,0,0,0.775,0,0)">
                            <path d="M440,0L40,0C17.944,0 0,17.944 0,40L0,320C0,342.056 17.944,360 40,360L174.416,360L161.32,432L129.888,432C120.736,432 112.512,437.088 108.416,445.264C104.664,452.76 105.064,461.488 109.464,468.616C113.872,475.744 121.504,480 129.888,480L350.104,480C358.488,480 366.12,475.744 370.528,468.616C374.928,461.488 375.328,452.76 371.576,445.264C367.488,437.088 359.256,432 350.112,432L318.68,432L305.584,360L440,360C462.056,360 480,342.056 480,320L480,288L480,40C480,17.944 462.056,0 440,0ZM312,448L350.112,448C353.168,448 355.912,449.696 357.272,452.424C359.08,456.024 357.632,459.064 356.92,460.208C356.208,461.344 354.144,464 350.112,464L129.888,464C125.856,464 123.784,461.344 123.08,460.2C122.368,459.056 120.92,456.024 122.728,452.416C124.096,449.696 126.832,448 129.888,448L232,448C236.424,448 240,444.424 240,440C240,435.576 236.424,432 232,432L177.584,432L190.68,360L289.32,360L302.416,432L280,432C275.576,432 272,435.576 272,440C272,444.424 275.576,448 280,448L312,448ZM464,320C464,333.232 453.232,344 440,344L296,344L184,344L40,344C26.768,344 16,333.232 16,320L16,296L464,296L464,320ZM464,280L16,280L16,40C16,26.768 26.768,16 40,16L440,16C453.232,16 464,26.768 464,40L464,280Z" style="fill-rule:nonzero;"/>
                        </g>
                    </g>
                </g>
            </g>
        </g>
    </g>
</svg>
