<?xml version="1.0" encoding="UTF-8" standalone="no"?>
<!DOCTYPE svg PUBLIC "-//W3C//DTD SVG 1.1//EN" "http://www.w3.org/Graphics/SVG/1.1/DTD/svg11.dtd">
<svg width="100%" height="100%" viewBox="0 0 245 206" version="1.1" xmlns="http://www.w3.org/2000/svg" xmlns:xlink="http://www.w3.org/1999/xlink" xml:space="preserve" xmlns:serif="http://www.serif.com/" style="fill-rule:evenodd;clip-rule:evenodd;stroke-linejoin:round;stroke-miterlimit:1.41421;">
    <g transform="matrix(1,0,0,1,-240.426,-1896.09)">
        <g transform="matrix(1,0,0,1,-2146.38,35.6152)">
            <g id="faster" transform="matrix(0.687629,0,0,0.687629,503.108,695.871)">
                <g transform="matrix(1,0,0,1.97178,0,-1847.66)">
                    <rect x="2739.41" y="1796" width="355.346" height="151.27" style="fill:none;"/>
                </g>
                <g id="optimization" transform="matrix(0.377783,0,0,0.377783,2917.08,1842.78)">
                    <g transform="matrix(1,0,0,1,-240,-240)">
                        <path d="M384,232L367.008,232C372.888,216.592 376,200.52 376,184C376,109.008 314.992,48 240,48C165.008,48 104,109.008 104,184C104,200.52 107.112,216.592 112.992,232L96,232C91.576,232 88,235.576 88,240C88,244.424 91.576,248 96,248L384,248C388.424,248 392,244.424 392,240C392,235.576 388.424,232 384,232ZM253.936,223.832C253.912,223.88 253.88,223.936 253.856,223.976C253.552,224.496 253.176,224.96 252.816,225.448C252.52,225.848 252.24,226.264 251.912,226.624C251.528,227.056 251.088,227.44 250.656,227.832C250.312,228.136 249.984,228.464 249.624,228.736C249.192,229.064 248.72,229.336 248.256,229.616C247.824,229.88 247.392,230.152 246.936,230.368C246.496,230.584 246.024,230.744 245.56,230.912C245.04,231.104 244.528,231.304 244,231.448C243.504,231.576 242.992,231.64 242.48,231.72C241.952,231.8 241.432,231.912 240.896,231.936C240.4,231.96 239.912,231.92 239.416,231.904C238.864,231.888 238.312,231.888 237.76,231.816C237.36,231.76 236.976,231.64 236.584,231.552C235.952,231.416 235.32,231.288 234.696,231.072C234.368,230.96 234.056,230.784 233.736,230.648C233.096,230.376 232.448,230.096 231.832,229.728C231.472,229.512 231.136,229.24 230.784,228.992C230.272,228.624 229.752,228.264 229.296,227.848C228.936,227.52 228.616,227.152 228.288,226.792C227.904,226.368 227.504,225.96 227.168,225.504C226.912,225.16 226.704,224.784 226.48,224.424C226.152,223.896 225.816,223.368 225.552,222.808C225.392,222.472 225.28,222.112 225.144,221.76C224.912,221.152 224.672,220.536 224.512,219.904C224.416,219.512 224.368,219.104 224.304,218.704C224.2,218.096 224.08,217.488 224.048,216.864C224.024,216.432 224.064,216.008 224.08,215.576C224.096,214.968 224.096,214.352 224.184,213.744C224.232,213.376 224.344,213.024 224.424,212.664C224.568,212 224.704,211.344 224.928,210.696C225.04,210.368 225.216,210.056 225.352,209.736C225.624,209.096 225.904,208.464 226.264,207.848C226.64,207.208 227.08,206.608 227.552,206.016C227.736,205.784 227.992,205.496 228.216,205.24C230.976,202.216 234.696,200.36 238.8,200.048C239.208,200.016 239.624,200 240.032,200C243.856,200 247.512,201.352 250.44,203.864C253.672,206.656 255.64,210.536 255.96,214.792C256.2,218.056 255.44,221.168 253.936,223.832ZM260.864,191.736C257.112,188.504 252.736,186.352 248.08,185.144C259.728,173.992 274.016,160.8 285.912,150.048C279.8,164.944 272.304,182.864 265.992,197.488C264.504,195.408 262.848,193.44 260.864,191.736ZM349.856,232L326.184,232C332.624,218.368 336,203.4 336,188C336,177.632 334.488,167.424 331.496,157.64C330.2,153.416 325.744,151.024 321.504,152.336C317.288,153.624 314.904,158.104 316.2,162.328C318.72,170.576 320,179.216 320,188C320,203.64 315.904,218.768 308.128,232L267.68,232C268.784,230.096 269.688,228.08 270.384,225.968C280.992,202.608 314.84,126.624 312.776,120.344C312.04,118.104 310.352,116.296 308.168,115.416C302.576,113.112 302.232,113.008 259.088,152.824C243.648,167.072 225.312,184.432 216.848,194.072C216.488,194.448 216.072,194.744 215.728,195.144C215.336,195.6 215.072,196.128 214.704,196.6C213.928,197.576 213.176,198.52 212.752,199.216C212.648,199.384 212.6,199.568 212.496,199.736C211.816,200.872 211.304,202.072 210.784,203.28C210.472,204.008 210.088,204.704 209.824,205.448C209.4,206.656 209.152,207.904 208.872,209.152C208.696,209.944 208.456,210.728 208.344,211.528C208.184,212.664 208.192,213.816 208.16,214.976C208.128,215.912 208.048,216.848 208.096,217.784C208.104,217.992 208.064,218.2 208.08,218.408C208.152,219.376 208.416,220.296 208.576,221.24C208.72,222.112 208.816,222.992 209.032,223.848C209.344,225.096 209.808,226.272 210.264,227.464C210.544,228.192 210.776,228.928 211.104,229.64C211.488,230.456 211.952,231.224 212.408,232L171.864,232C164.096,218.768 160,203.64 160,188C160,180.272 161,172.624 162.96,165.264C164.104,161 161.568,156.616 157.296,155.472C153.096,154.32 148.648,156.864 147.504,161.136C145.176,169.832 144,178.872 144,188C144,203.4 147.376,218.368 153.816,232L130.144,232C123.408,216.704 120,200.576 120,184C120,117.832 173.832,64 240,64C306.168,64 360,117.832 360,184C360,200.576 356.592,216.704 349.856,232Z" style="fill-rule:nonzero;"/>
                        <path d="M275.04,94.872C247.912,83.784 216.128,86.424 190.984,101.992C187.224,104.32 186.072,109.248 188.392,113.008C189.904,115.456 192.528,116.8 195.208,116.8C196.648,116.8 198.096,116.416 199.408,115.608C220.24,102.704 246.56,100.52 268.992,109.696C273.064,111.368 277.752,109.408 279.424,105.312C281.096,101.216 279.136,96.544 275.04,94.872Z" style="fill-rule:nonzero;"/>
                        <path d="M440,0L40,0C17.944,0 0,17.944 0,40L0,320C0,342.056 17.944,360 40,360L174.416,360L161.32,432L129.888,432C120.736,432 112.512,437.088 108.416,445.264C104.664,452.76 105.064,461.488 109.464,468.616C113.872,475.744 121.504,480 129.888,480L350.104,480C358.488,480 366.12,475.744 370.528,468.616C374.928,461.488 375.328,452.76 371.576,445.264C367.488,437.088 359.256,432 350.112,432L318.68,432L305.584,360L440,360C462.056,360 480,342.056 480,320L480,288L480,40C480,17.944 462.056,0 440,0ZM312,448L350.112,448C353.168,448 355.912,449.696 357.272,452.424C359.08,456.024 357.632,459.064 356.92,460.208C356.208,461.344 354.144,464 350.112,464L129.888,464C125.856,464 123.784,461.344 123.08,460.2C122.368,459.056 120.92,456.024 122.728,452.416C124.096,449.696 126.832,448 129.888,448L232,448C236.424,448 240,444.424 240,440C240,435.576 236.424,432 232,432L177.584,432L190.68,360L289.32,360L302.416,432L280,432C275.576,432 272,435.576 272,440C272,444.424 275.576,448 280,448L312,448ZM464,320C464,333.232 453.232,344 440,344L296,344L184,344L40,344C26.768,344 16,333.232 16,320L16,296L464,296L464,320ZM464,280L16,280L16,40C16,26.768 26.768,16 40,16L440,16C453.232,16 464,26.768 464,40L464,280Z" style="fill-rule:nonzero;"/>
                    </g>
                </g>
            </g>
        </g>
    </g>
</svg>
