<?xml version="1.0" encoding="UTF-8" standalone="no"?>
<!DOCTYPE svg PUBLIC "-//W3C//DTD SVG 1.1//EN" "http://www.w3.org/Graphics/SVG/1.1/DTD/svg11.dtd">
<svg width="100%" height="100%" viewBox="0 0 135 135" version="1.1" xmlns="http://www.w3.org/2000/svg" xmlns:xlink="http://www.w3.org/1999/xlink" xml:space="preserve" xmlns:serif="http://www.serif.com/" style="fill-rule:evenodd;clip-rule:evenodd;stroke-linejoin:round;stroke-miterlimit:1.41421;">
    <g transform="matrix(1,0,0,1,-778.531,-945.021)">
        <g transform="matrix(1,0,0,1.50986,15.6462,0)">
            <g id="pr_twitter" transform="matrix(4.02923,0,0,2.66862,830.374,670.6)">
                <g transform="matrix(1,0,0,1,-16.75,-16.75)">
                    <g transform="matrix(1,0,0,1,495.6,-761.2)">
                        <path d="M-470.4,774.3C-470.5,774.2 -470.6,774.1 -470.8,774.2C-471.1,774.3 -471.4,774.4 -471.9,774.4C-471.5,774.2 -471.2,774 -471,773.8C-470.9,773.7 -470.9,773.4 -471,773.3C-471.1,773.2 -471.3,773.2 -471.4,773.2C-471.8,773.4 -472.2,773.5 -472.7,773.5C-473.5,771.8 -474.9,771.2 -475,771.1C-475.9,770.7 -476.7,770.6 -477.4,770.8C-479.4,771.2 -480.3,773.6 -480,775.5C-480.5,775.5 -483.3,775.2 -486.8,773.2C-487,773.1 -487.2,773.2 -487.3,773.3L-487.3,773.5C-487.3,775.6 -485.4,776.6 -484.5,776.9L-485.2,776.9C-485.4,776.9 -485.6,777 -485.6,777.2C-485.6,777.3 -485.5,777.4 -485.5,777.5C-484.9,777.9 -484.4,778.1 -483.8,778.2L-484.2,778.2C-484.4,778.2 -484.5,778.4 -484.5,778.6C-484.5,778.7 -484.4,778.8 -484.3,778.9C-483.8,779.2 -483,779.6 -482.1,779.6L-482,779.6C-482.1,779.6 -482.2,779.7 -482.3,779.7L-482.4,779.7C-482.6,779.7 -482.7,779.9 -482.7,780.1C-482.7,780.2 -482.6,780.3 -482.5,780.4C-481.8,780.6 -481.2,780.7 -480.7,780.5C-480.6,780.5 -480.5,780.5 -480.4,780.4C-480.4,780.9 -480.7,782.7 -483.7,783.4C-483.9,783.4 -484.3,783.5 -484.8,783.5L-485.4,783.5C-485.6,783.5 -485.7,783.6 -485.8,783.8C-485.8,784 -485.8,784.1 -485.6,784.2C-484.4,784.7 -483.2,785 -481.8,785.1C-481.1,785.1 -480.3,785 -479.7,784.9C-478.4,784.6 -477.2,784.1 -476,783.3L-475.9,783.3C-474.2,782.1 -473,780.5 -472.2,778.5C-471.9,777.5 -471.8,776.5 -471.9,775.7C-471.3,775.5 -470.8,775.2 -470.5,774.9C-470.4,774.7 -470.3,774.5 -470.4,774.3Z" style="fill-rule:nonzero;"/>
                    </g>
                </g>
            </g>
        </g>
    </g>
</svg>
